<svg xmlns="http://www.w3.org/2000/svg" width="270.61" height="35" viewBox="0 0 270.61 35"><rect class="svg__rect" x="0" y="0" width="106.33" height="35" fill="#3BC4F3"/><rect class="svg__rect" x="104.33" y="0" width="166.28000000000003" height="35" fill="#389AD5"/><path class="svg__text" d="M15.69 22L14.22 22L14.22 13.47L16.14 13.47L18.60 20.01L21.06 13.47L22.97 13.47L22.97 22L21.49 22L21.49 19.19L21.64 15.43L19.12 22L18.06 22L15.55 15.43L15.69 19.19L15.69 22ZM28.49 22L26.95 22L30.17 13.47L31.50 13.47L34.73 22L33.18 22L32.49 20.01L29.18 20.01L28.49 22ZM30.83 15.28L29.60 18.82L32.07 18.82L30.83 15.28ZM41.14 22L38.69 22L38.69 13.47L41.21 13.47Q42.34 13.47 43.21 13.97Q44.09 14.48 44.57 15.40Q45.05 16.33 45.05 17.52L45.05 17.52L45.05 17.95Q45.05 19.16 44.57 20.08Q44.08 21.00 43.19 21.50Q42.30 22 41.14 22L41.14 22ZM40.17 14.66L40.17 20.82L41.14 20.82Q42.30 20.82 42.93 20.09Q43.55 19.36 43.56 17.99L43.56 17.99L43.56 17.52Q43.56 16.13 42.96 15.40Q42.35 14.66 41.21 14.66L41.21 14.66L40.17 14.66ZM55.09 22L49.51 22L49.51 13.47L55.05 13.47L55.05 14.66L51.00 14.66L51.00 17.02L54.50 17.02L54.50 18.19L51.00 18.19L51.00 20.82L55.09 20.82L55.09 22ZM66.75 22L65.26 22L65.26 13.47L70.68 13.47L70.68 14.66L66.75 14.66L66.75 17.20L70.18 17.20L70.18 18.38L66.75 18.38L66.75 22ZM74.57 18.00L74.57 18.00L74.57 17.52Q74.57 16.28 75.02 15.32Q75.46 14.37 76.27 13.86Q77.07 13.35 78.11 13.35Q79.16 13.35 79.96 13.85Q80.77 14.35 81.21 15.29Q81.65 16.23 81.65 17.48L81.65 17.48L81.65 17.96Q81.65 19.21 81.22 20.16Q80.79 21.10 79.98 21.61Q79.17 22.12 78.13 22.12L78.13 22.12Q77.09 22.12 76.28 21.61Q75.47 21.10 75.02 20.17Q74.58 19.23 74.57 18.00ZM76.06 17.46L76.06 17.96Q76.06 19.36 76.60 20.13Q77.15 20.90 78.13 20.90L78.13 20.90Q79.11 20.90 79.64 20.15Q80.17 19.40 80.17 17.96L80.17 17.96L80.17 17.51Q80.17 16.09 79.63 15.34Q79.10 14.58 78.11 14.58L78.11 14.58Q77.15 14.58 76.61 15.33Q76.07 16.09 76.06 17.46L76.06 17.46ZM87.60 22L86.12 22L86.12 13.47L89.12 13.47Q90.59 13.47 91.40 14.13Q92.20 14.79 92.20 16.05L92.20 16.05Q92.20 16.90 91.79 17.48Q91.37 18.06 90.64 18.37L90.64 18.37L92.55 21.92L92.55 22L90.96 22L89.25 18.71L87.60 18.71L87.60 22ZM87.60 14.66L87.60 17.52L89.12 17.52Q89.87 17.52 90.30 17.15Q90.72 16.77 90.72 16.11L90.72 16.11Q90.72 15.43 90.33 15.05Q89.94 14.68 89.16 14.66L89.16 14.66L87.60 14.66Z" fill="#FFFFFF"/><path class="svg__text" d="M125.26 22L118.52 22L118.52 13.60L125.11 13.60L125.11 15.44L120.87 15.44L120.87 16.85L124.61 16.85L124.61 18.63L120.87 18.63L120.87 20.17L125.26 20.17L125.26 22ZM132.45 22L130.07 22L130.07 13.60L136.66 13.60L136.66 15.44L132.45 15.44L132.45 17.28L136.15 17.28L136.15 19.12L132.45 19.12L132.45 22ZM143.63 22L141.25 22L141.25 13.60L145.10 13.60Q146.24 13.60 147.08 13.98Q147.91 14.35 148.37 15.06Q148.83 15.76 148.83 16.71L148.83 16.71Q148.83 17.62 148.40 18.30Q147.97 18.98 147.18 19.36L147.18 19.36L148.99 22L146.45 22L144.93 19.77L143.63 19.77L143.63 22ZM143.63 15.47L143.63 17.93L144.95 17.93Q145.68 17.93 146.05 17.61Q146.43 17.29 146.43 16.71L146.43 16.71Q146.43 16.12 146.05 15.79Q145.68 15.47 144.95 15.47L144.95 15.47L143.63 15.47ZM160.36 22L153.62 22L153.62 13.60L160.21 13.60L160.21 15.44L155.97 15.44L155.97 16.85L159.70 16.85L159.70 18.63L155.97 18.63L155.97 20.17L160.36 20.17L160.36 22ZM167.54 22L165.16 22L165.16 13.60L167.54 13.60L167.54 22ZM182.07 22L179.69 22L179.69 13.60L183.53 13.60Q184.67 13.60 185.51 13.98Q186.35 14.35 186.81 15.06Q187.27 15.76 187.27 16.71L187.27 16.71Q187.27 17.66 186.81 18.35Q186.35 19.05 185.51 19.42Q184.67 19.80 183.53 19.80L183.53 19.80L182.07 19.80L182.07 22ZM182.07 15.47L182.07 17.93L183.39 17.93Q184.12 17.93 184.49 17.61Q184.86 17.29 184.86 16.71L184.86 16.71Q184.86 16.12 184.49 15.80Q184.12 15.47 183.39 15.47L183.39 15.47L182.07 15.47ZM194.40 22L192.02 22L192.02 13.60L195.86 13.60Q197.00 13.60 197.84 13.98Q198.68 14.35 199.14 15.06Q199.59 15.76 199.59 16.71L199.59 16.71Q199.59 17.62 199.17 18.30Q198.74 18.98 197.95 19.36L197.95 19.36L199.76 22L197.22 22L195.69 19.77L194.40 19.77L194.40 22ZM194.40 15.47L194.40 17.93L195.72 17.93Q196.45 17.93 196.82 17.61Q197.19 17.29 197.19 16.71L197.19 16.71Q197.19 16.12 196.82 15.79Q196.45 15.47 195.72 15.47L195.72 15.47L194.40 15.47ZM203.95 17.80L203.95 17.80Q203.95 16.55 204.56 15.55Q205.16 14.56 206.22 14.00Q207.29 13.43 208.62 13.43L208.62 13.43Q209.95 13.43 211.01 14.00Q212.07 14.56 212.68 15.55Q213.29 16.55 213.29 17.80L213.29 17.80Q213.29 19.05 212.68 20.04Q212.07 21.04 211.01 21.60Q209.95 22.17 208.62 22.17L208.62 22.17Q207.29 22.17 206.22 21.60Q205.16 21.04 204.56 20.04Q203.95 19.05 203.95 17.80ZM206.35 17.80L206.35 17.80Q206.35 18.51 206.65 19.05Q206.95 19.60 207.47 19.90Q207.98 20.20 208.62 20.20L208.62 20.20Q209.26 20.20 209.77 19.90Q210.29 19.60 210.59 19.05Q210.89 18.51 210.89 17.80L210.89 17.80Q210.89 17.09 210.59 16.54Q210.29 16 209.77 15.70Q209.26 15.40 208.62 15.40L208.62 15.40Q207.98 15.40 207.47 15.70Q206.95 16 206.65 16.54Q206.35 17.09 206.35 17.80ZM216.94 20.93L216.94 20.93L218.23 19.40Q218.90 20.27 219.67 20.27L219.67 20.27Q219.68 20.27 219.69 20.27L219.69 20.27Q220.20 20.27 220.47 19.96Q220.74 19.65 220.74 19.05L220.74 19.05L220.74 15.44L217.84 15.44L217.84 13.60L223.10 13.60L223.10 18.91Q223.10 20.54 222.27 21.36Q221.45 22.17 219.86 22.17L219.86 22.17Q218.93 22.17 218.17 21.85Q217.42 21.53 216.94 20.93ZM234.93 22L228.18 22L228.18 13.60L234.77 13.60L234.77 15.44L230.54 15.44L230.54 16.85L234.27 16.85L234.27 18.63L230.54 18.63L230.54 20.17L234.93 20.17L234.93 22ZM239.30 17.80L239.30 17.80Q239.30 16.54 239.90 15.54Q240.50 14.55 241.55 13.99Q242.60 13.43 243.92 13.43L243.92 13.43Q245.07 13.43 246.00 13.84Q246.92 14.25 247.54 15.02L247.54 15.02L246.02 16.39Q245.21 15.40 244.04 15.40L244.04 15.40Q243.36 15.40 242.82 15.70Q242.29 16 242.00 16.54Q241.70 17.09 241.70 17.80L241.70 17.80Q241.70 18.51 242.00 19.05Q242.29 19.60 242.82 19.90Q243.36 20.20 244.04 20.20L244.04 20.20Q245.21 20.20 246.02 19.22L246.02 19.22L247.54 20.58Q246.93 21.35 246.00 21.76Q245.07 22.17 243.92 22.17L243.92 22.17Q242.60 22.17 241.55 21.61Q240.50 21.05 239.90 20.05Q239.30 19.06 239.30 17.80ZM253.86 15.48L251.28 15.48L251.28 13.60L258.80 13.60L258.80 15.48L256.24 15.48L256.24 22L253.86 22L253.86 15.48Z" fill="#FFFFFF" x="117.33"/></svg>