<svg xmlns="http://www.w3.org/2000/svg" width="444.29999999999995" height="35" viewBox="0 0 444.29999999999995 35"><rect class="svg__rect" x="0" y="0" width="102.28" height="35" fill="#005384"/><rect class="svg__rect" x="100.28" y="0" width="344.02" height="35" fill="#389AD5"/><path class="svg__text" d="M16.25 14.66L13.61 14.66L13.61 13.47L20.38 13.47L20.38 14.66L17.72 14.66L17.72 22L16.25 22L16.25 14.66ZM25.62 22L24.14 22L24.14 13.47L27.14 13.47Q28.61 13.47 29.42 14.13Q30.22 14.79 30.22 16.05L30.22 16.05Q30.22 16.90 29.81 17.48Q29.39 18.06 28.65 18.37L28.65 18.37L30.57 21.92L30.57 22L28.98 22L27.27 18.71L25.62 18.71L25.62 22ZM25.62 14.66L25.62 17.52L27.14 17.52Q27.89 17.52 28.31 17.15Q28.74 16.77 28.74 16.11L28.74 16.11Q28.74 15.43 28.35 15.05Q27.96 14.68 27.18 14.66L27.18 14.66L25.62 14.66ZM35.39 22L33.85 22L37.07 13.47L38.40 13.47L41.63 22L40.09 22L39.39 20.01L36.08 20.01L35.39 22ZM37.74 15.28L36.50 18.82L38.97 18.82L37.74 15.28ZM47.15 22L45.68 22L45.68 13.47L47.15 13.47L47.15 22ZM53.45 22L51.96 22L51.96 13.47L53.45 13.47L57.26 19.54L57.26 13.47L58.73 13.47L58.73 22L57.25 22L53.45 15.95L53.45 22ZM65.04 22L63.56 22L63.56 13.47L65.04 13.47L65.04 22ZM71.33 22L69.85 22L69.85 13.47L71.33 13.47L75.14 19.54L75.14 13.47L76.61 13.47L76.61 22L75.13 22L71.33 15.95L71.33 22ZM81.11 18.13L81.11 18.13L81.11 17.46Q81.11 15.53 82.03 14.44Q82.96 13.35 84.62 13.35L84.62 13.35Q86.04 13.35 86.88 14.05Q87.72 14.76 87.89 16.08L87.89 16.08L86.43 16.08Q86.19 14.54 84.65 14.54L84.65 14.54Q83.65 14.54 83.13 15.26Q82.61 15.98 82.60 17.37L82.60 17.37L82.60 18.02Q82.60 19.40 83.18 20.17Q83.76 20.93 84.80 20.93L84.80 20.93Q85.94 20.93 86.42 20.42L86.42 20.42L86.42 18.75L84.66 18.75L84.66 17.62L87.89 17.62L87.89 20.89Q87.43 21.50 86.61 21.81Q85.79 22.12 84.75 22.12L84.75 22.12Q83.67 22.12 82.85 21.63Q82.02 21.14 81.57 20.24Q81.13 19.33 81.11 18.13Z" fill="#FFFFFF"/><path class="svg__text" d="M113.88 21.24L113.88 21.24L114.66 19.49Q115.22 19.86 115.97 20.09Q116.71 20.32 117.43 20.32L117.43 20.32Q118.80 20.32 118.80 19.64L118.80 19.64Q118.80 19.28 118.41 19.11Q118.02 18.93 117.16 18.74L117.16 18.74Q116.21 18.53 115.57 18.30Q114.94 18.06 114.48 17.55Q114.03 17.03 114.03 16.16L114.03 16.16Q114.03 15.39 114.45 14.77Q114.87 14.15 115.70 13.79Q116.54 13.43 117.74 13.43L117.74 13.43Q118.57 13.43 119.38 13.62Q120.18 13.80 120.80 14.17L120.80 14.17L120.06 15.93Q118.86 15.28 117.73 15.28L117.73 15.28Q117.02 15.28 116.70 15.49Q116.38 15.70 116.38 16.04L116.38 16.04Q116.38 16.37 116.76 16.54Q117.15 16.71 118.00 16.89L118.00 16.89Q118.96 17.10 119.59 17.33Q120.22 17.56 120.68 18.07Q121.14 18.58 121.14 19.46L121.14 19.46Q121.14 20.21 120.72 20.83Q120.30 21.44 119.46 21.80Q118.62 22.17 117.42 22.17L117.42 22.17Q116.40 22.17 115.44 21.92Q114.48 21.67 113.88 21.24ZM125.29 17.80L125.29 17.80Q125.29 16.54 125.89 15.54Q126.49 14.55 127.55 13.99Q128.62 13.43 129.97 13.43L129.97 13.43Q131.14 13.43 132.08 13.83Q133.02 14.22 133.64 14.97L133.64 14.97L132.13 16.33Q131.28 15.40 130.11 15.40L130.11 15.40Q130.09 15.40 130.09 15.40L130.09 15.40Q129.01 15.40 128.35 16.06Q127.69 16.71 127.69 17.80L127.69 17.80Q127.69 18.50 127.99 19.04Q128.29 19.59 128.83 19.89Q129.37 20.20 130.07 20.20L130.07 20.20Q130.75 20.20 131.35 19.93L131.35 19.93L131.35 17.62L133.45 17.62L133.45 21.10Q132.73 21.61 131.79 21.89Q130.86 22.17 129.92 22.17L129.92 22.17Q128.60 22.17 127.54 21.61Q126.49 21.05 125.89 20.05Q125.29 19.06 125.29 17.80ZM147.79 22L145.41 22L145.41 13.60L149.25 13.60Q150.40 13.60 151.24 13.98Q152.07 14.35 152.53 15.06Q152.99 15.76 152.99 16.71L152.99 16.71Q152.99 17.62 152.56 18.30Q152.13 18.98 151.34 19.36L151.34 19.36L153.15 22L150.61 22L149.09 19.77L147.79 19.77L147.79 22ZM147.79 15.47L147.79 17.93L149.11 17.93Q149.84 17.93 150.21 17.61Q150.59 17.29 150.59 16.71L150.59 16.71Q150.59 16.12 150.21 15.79Q149.84 15.47 149.11 15.47L149.11 15.47L147.79 15.47ZM164.52 22L157.77 22L157.77 13.60L164.37 13.60L164.37 15.44L160.13 15.44L160.13 16.85L163.86 16.85L163.86 18.63L160.13 18.63L160.13 20.17L164.52 20.17L164.52 22ZM168.74 21.24L168.74 21.24L169.52 19.49Q170.08 19.86 170.82 20.09Q171.57 20.32 172.29 20.32L172.29 20.32Q173.65 20.32 173.66 19.64L173.66 19.64Q173.66 19.28 173.27 19.11Q172.88 18.93 172.01 18.74L172.01 18.74Q171.06 18.53 170.43 18.30Q169.79 18.06 169.34 17.55Q168.88 17.03 168.88 16.16L168.88 16.16Q168.88 15.39 169.30 14.77Q169.72 14.15 170.56 13.79Q171.39 13.43 172.60 13.43L172.60 13.43Q173.42 13.43 174.23 13.62Q175.04 13.80 175.65 14.17L175.65 14.17L174.92 15.93Q173.72 15.28 172.59 15.28L172.59 15.28Q171.88 15.28 171.56 15.49Q171.23 15.70 171.23 16.04L171.23 16.04Q171.23 16.37 171.62 16.54Q172.00 16.71 172.85 16.89L172.85 16.89Q173.81 17.10 174.44 17.33Q175.07 17.56 175.53 18.07Q176.00 18.58 176.00 19.46L176.00 19.46Q176.00 20.21 175.58 20.83Q175.16 21.44 174.32 21.80Q173.48 22.17 172.28 22.17L172.28 22.17Q171.26 22.17 170.30 21.92Q169.34 21.67 168.74 21.24ZM182.93 22L180.57 22L180.57 13.60L182.93 13.60L182.93 17.09L186.18 13.60L188.79 13.60L185.37 17.32L188.98 22L186.22 22L183.81 18.95L182.93 19.90L182.93 22ZM195.46 22L193.08 22L193.08 13.60L195.46 13.60L195.46 22ZM207.02 22L200.64 22L200.64 13.60L203.01 13.60L203.01 20.11L207.02 20.11L207.02 22ZM217.83 22L211.44 22L211.44 13.60L213.82 13.60L213.82 20.11L217.83 20.11L217.83 22ZM224.62 22L222.25 22L222.25 13.60L224.62 13.60L224.62 22ZM232.13 22L229.80 22L229.80 13.60L231.75 13.60L235.46 18.07L235.46 13.60L237.79 13.60L237.79 22L235.84 22L232.13 17.52L232.13 22ZM242.52 17.80L242.52 17.80Q242.52 16.54 243.12 15.54Q243.72 14.55 244.79 13.99Q245.86 13.43 247.20 13.43L247.20 13.43Q248.38 13.43 249.32 13.83Q250.25 14.22 250.87 14.97L250.87 14.97L249.36 16.33Q248.52 15.40 247.34 15.40L247.34 15.40Q247.33 15.40 247.32 15.40L247.32 15.40Q246.25 15.40 245.58 16.06Q244.92 16.71 244.92 17.80L244.92 17.80Q244.92 18.50 245.22 19.04Q245.52 19.59 246.06 19.89Q246.60 20.20 247.30 20.20L247.30 20.20Q247.99 20.20 248.58 19.93L248.58 19.93L248.58 17.62L250.68 17.62L250.68 21.10Q249.96 21.61 249.03 21.89Q248.09 22.17 247.15 22.17L247.15 22.17Q245.84 22.17 244.78 21.61Q243.72 21.05 243.12 20.05Q242.52 19.06 242.52 17.80ZM265.89 19.46L262.38 19.46L262.38 17.71L265.89 17.71L265.89 19.46ZM279.84 22L277.11 13.60L279.56 13.60L281.25 18.96L283.02 13.60L285.21 13.60L286.90 19.01L288.67 13.60L290.93 13.60L288.21 22L285.67 22L284.06 16.89L282.38 22L279.84 22ZM302.19 22L295.45 22L295.45 13.60L302.04 13.60L302.04 15.44L297.80 15.44L297.80 16.85L301.53 16.85L301.53 18.63L297.80 18.63L297.80 20.17L302.19 20.17L302.19 22ZM311.54 22L307.00 22L307.00 13.60L311.30 13.60Q312.90 13.60 313.74 14.19Q314.58 14.79 314.58 15.79L314.58 15.79Q314.58 16.39 314.29 16.87Q313.99 17.34 313.45 17.62L313.45 17.62Q314.17 17.87 314.58 18.41Q314.99 18.94 314.99 19.70L314.99 19.70Q314.99 20.80 314.10 21.40Q313.21 22 311.54 22L311.54 22ZM309.35 18.58L309.35 20.28L311.34 20.28Q312.59 20.28 312.59 19.43L312.59 19.43Q312.59 18.58 311.34 18.58L311.34 18.58L309.35 18.58ZM309.35 15.31L309.35 16.94L310.98 16.94Q312.18 16.94 312.18 16.12L312.18 16.12Q312.18 15.31 310.98 15.31L310.98 15.31L309.35 15.31ZM330.65 22L326.68 22L326.68 13.60L330.65 13.60Q332.03 13.60 333.10 14.12Q334.17 14.63 334.75 15.58Q335.34 16.53 335.34 17.80L335.34 17.80Q335.34 19.07 334.75 20.02Q334.17 20.97 333.10 21.48Q332.03 22 330.65 22L330.65 22ZM329.06 15.50L329.06 20.10L330.56 20.10Q331.63 20.10 332.29 19.49Q332.94 18.88 332.94 17.80L332.94 17.80Q332.94 16.72 332.29 16.11Q331.63 15.50 330.56 15.50L330.56 15.50L329.06 15.50ZM346.82 22L340.07 22L340.07 13.60L346.66 13.60L346.66 15.44L342.43 15.44L342.43 16.85L346.16 16.85L346.16 18.63L342.43 18.63L342.43 20.17L346.82 20.17L346.82 22ZM354.20 22L350.61 13.60L353.18 13.60L355.46 19.07L357.79 13.60L360.14 13.60L356.54 22L354.20 22ZM371.04 22L364.29 22L364.29 13.60L370.89 13.60L370.89 15.44L366.65 15.44L366.65 16.85L370.38 16.85L370.38 18.63L366.65 18.63L366.65 20.17L371.04 20.17L371.04 22ZM382.23 22L375.84 22L375.84 13.60L378.22 13.60L378.22 20.11L382.23 20.11L382.23 22ZM386.22 17.80L386.22 17.80Q386.22 16.55 386.82 15.55Q387.43 14.56 388.49 14.00Q389.55 13.43 390.88 13.43L390.88 13.43Q392.21 13.43 393.28 14.00Q394.34 14.56 394.95 15.55Q395.55 16.55 395.55 17.80L395.55 17.80Q395.55 19.05 394.95 20.04Q394.34 21.04 393.28 21.60Q392.22 22.17 390.88 22.17L390.88 22.17Q389.55 22.17 388.49 21.60Q387.43 21.04 386.82 20.04Q386.22 19.05 386.22 17.80ZM388.62 17.80L388.62 17.80Q388.62 18.51 388.92 19.05Q389.22 19.60 389.74 19.90Q390.25 20.20 390.88 20.20L390.88 20.20Q391.52 20.20 392.04 19.90Q392.55 19.60 392.85 19.05Q393.15 18.51 393.15 17.80L393.15 17.80Q393.15 17.09 392.85 16.54Q392.55 16 392.04 15.70Q391.52 15.40 390.88 15.40L390.88 15.40Q390.25 15.40 389.73 15.70Q389.22 16 388.92 16.54Q388.62 17.09 388.62 17.80ZM402.66 22L400.28 22L400.28 13.60L404.13 13.60Q405.26 13.60 406.10 13.98Q406.94 14.35 407.40 15.06Q407.86 15.76 407.86 16.71L407.86 16.71Q407.86 17.66 407.40 18.35Q406.94 19.05 406.10 19.42Q405.26 19.80 404.13 19.80L404.13 19.80L402.66 19.80L402.66 22ZM402.66 15.47L402.66 17.93L403.98 17.93Q404.71 17.93 405.08 17.61Q405.46 17.29 405.46 16.71L405.46 16.71Q405.46 16.12 405.08 15.80Q404.71 15.47 403.98 15.47L403.98 15.47L402.66 15.47ZM419.35 22L412.61 22L412.61 13.60L419.20 13.60L419.20 15.44L414.97 15.44L414.97 16.85L418.70 16.85L418.70 18.63L414.97 18.63L414.97 20.17L419.35 20.17L419.35 22ZM426.54 22L424.16 22L424.16 13.60L428.00 13.60Q429.15 13.60 429.98 13.98Q430.82 14.35 431.28 15.06Q431.74 15.76 431.74 16.71L431.74 16.71Q431.74 17.62 431.31 18.30Q430.88 18.98 430.09 19.36L430.09 19.36L431.90 22L429.36 22L427.83 19.77L426.54 19.77L426.54 22ZM426.54 15.47L426.54 17.93L427.86 17.93Q428.59 17.93 428.96 17.61Q429.33 17.29 429.33 16.71L429.33 16.71Q429.33 16.12 428.96 15.79Q428.59 15.47 427.86 15.47L427.86 15.47L426.54 15.47Z" fill="#FFFFFF" x="113.28"/></svg>